<?xml version="1.0" encoding="utf-8"?>
<!-- Generator: Adobe Illustrator 16.0.0, SVG Export Plug-In . SVG Version: 6.00 Build 0)  -->
<!DOCTYPE svg PUBLIC "-//W3C//DTD SVG 1.1//EN" "http://www.w3.org/Graphics/SVG/1.1/DTD/svg11.dtd">
<svg version="1.1" id="Layer_1" xmlns="http://www.w3.org/2000/svg" xmlns:xlink="http://www.w3.org/1999/xlink" x="0px" y="0px"
	 width="566.93px" height="566.93px" viewBox="0 0 566.93 566.93" enable-background="new 0 0 566.93 566.93" xml:space="preserve">
<g>
	<g>
		<path fill="#4A95D1" d="M490.965,300.453c0,7.826-6.346,14.172-14.174,14.172H90.138c-7.827,0-14.173-6.346-14.173-14.172v-63.654
			c0-7.828,6.346-14.174,14.173-14.174h386.653c7.828,0,14.174,6.346,14.174,14.174V300.453z"/>
		<g>
			<g>
				<path fill="#FFFFFF" d="M110.563,244.026l-0.064,35.593c0,1.094,0.328,1.915,0.984,2.462c0.656,0.548,1.619,0.821,2.89,0.821
					h2.626l1.117,6.566c-0.525,0.263-1.271,0.492-2.232,0.689c-0.964,0.197-1.949,0.35-2.955,0.46
					c-1.008,0.108-1.861,0.164-2.562,0.164c-2.934,0-5.253-0.767-6.961-2.298c-1.708-1.533-2.562-3.678-2.562-6.436v-38.022H110.563
					z"/>
				<path fill="#FFFFFF" d="M128.227,243.238c1.926,0,2.891,0.984,2.891,2.955v3.48c0,1.971-0.965,2.955-2.891,2.955h-4.202
					c-1.927,0-2.89-0.984-2.89-2.955v-3.48c0-1.971,0.963-2.955,2.89-2.955H128.227z M130.92,257.555v32.439h-9.654v-32.439H130.92z
					"/>
				<path fill="#FFFFFF" d="M150.159,256.7c1.576,0,3.284,0.056,5.122,0.164c1.839,0.11,3.633,0.253,5.385,0.427
					c1.75,0.176,3.305,0.395,4.662,0.656l-0.656,6.042c-2.102-0.043-4.214-0.075-6.337-0.099c-2.124-0.021-4.192-0.033-6.206-0.033
					c-1.707-0.043-3.021-0.021-3.939,0.066c-0.92,0.088-1.566,0.295-1.938,0.624c-0.373,0.328-0.559,0.909-0.559,1.74
					c0,0.964,0.328,1.608,0.985,1.937s1.751,0.689,3.284,1.084l8.471,2.035c2.714,0.701,4.729,1.74,6.041,3.119
					c1.314,1.38,1.971,3.448,1.971,6.207c0,2.715-0.504,4.793-1.511,6.238c-1.007,1.444-2.604,2.44-4.794,2.987
					s-5.014,0.821-8.471,0.821c-1.357,0-3.372-0.066-6.041-0.197c-2.672-0.131-5.605-0.46-8.801-0.984l0.657-6.042
					c0.788,0.044,1.794,0.077,3.021,0.099c1.225,0.022,2.561,0.033,4.006,0.033s2.89,0,4.334,0c2.232,0,3.94-0.055,5.123-0.165
					c1.182-0.108,1.99-0.36,2.43-0.755c0.437-0.395,0.656-0.985,0.656-1.773c0-0.963-0.373-1.619-1.117-1.97
					s-1.926-0.723-3.545-1.116l-8.209-2.036c-2.059-0.568-3.656-1.29-4.794-2.167c-1.139-0.875-1.937-1.947-2.397-3.218
					c-0.459-1.269-0.689-2.779-0.689-4.53c0-2.233,0.449-4.017,1.347-5.353c0.897-1.335,2.364-2.309,4.399-2.923
					C144.085,257.007,146.787,256.7,150.159,256.7z"/>
				<path fill="#FFFFFF" d="M193.105,257.555v6.369h-24.494v-6.041l6.305-0.328H193.105z M184.044,248.558v31.062
					c0,1.182,0.272,2.025,0.821,2.527c0.547,0.504,1.455,0.756,2.725,0.756h4.203l1.051,6.566c-0.789,0.263-1.752,0.492-2.89,0.689
					c-1.14,0.197-2.276,0.35-3.415,0.46c-1.139,0.108-2.102,0.164-2.889,0.164c-2.934,0-5.221-0.788-6.863-2.364
					c-1.642-1.576-2.463-3.786-2.463-6.633l-0.064-33.228H184.044z"/>
				<path fill="#FFFFFF" d="M204.729,257.555l0.984,6.435l0.986,0.854v25.15h-9.72v-32.439H204.729z M217.862,256.7
					c2.89,0,5.089,0.755,6.6,2.266s2.266,3.755,2.266,6.731v24.297h-9.325v-21.276c0-1.401-0.295-2.386-0.887-2.955
					c-0.591-0.569-1.5-0.854-2.725-0.854c-0.745,0-1.479,0.1-2.2,0.296c-0.722,0.197-1.555,0.536-2.495,1.019
					c-0.942,0.482-2.092,1.16-3.447,2.035l-0.592-5.385c2.145-2.057,4.225-3.601,6.238-4.629
					C213.309,257.215,215.498,256.7,217.862,256.7z M238.088,256.7c2.933,0,5.166,0.767,6.698,2.298
					c1.532,1.533,2.298,3.766,2.298,6.699v24.297h-9.652v-21.276c0-1.356-0.263-2.331-0.788-2.923
					c-0.525-0.591-1.444-0.887-2.759-0.887c-0.787,0-1.532,0.11-2.232,0.329c-0.701,0.22-1.51,0.569-2.43,1.051
					c-0.919,0.481-2.035,1.139-3.35,1.97l-0.524-5.385c2.101-2.057,4.17-3.601,6.206-4.629
					C233.59,257.215,235.768,256.7,238.088,256.7z"/>
				<path fill="#FFFFFF" d="M260.415,257.555l6.173,21.014c0.174,0.832,0.35,1.664,0.525,2.495c0.174,0.832,0.328,1.664,0.459,2.495
					h1.773l-3.086,6.436h-2.364c-0.745,0-1.401-0.219-1.97-0.656c-0.57-0.438-0.964-1.007-1.183-1.708l-10.704-30.075H260.415z
					 M286.157,257.555l-11.624,32.834c-0.525,1.619-1.259,3.25-2.199,4.892c-0.942,1.642-2.124,3.12-3.547,4.433
					c-1.423,1.313-3.13,2.309-5.121,2.988c-1.993,0.678-4.346,0.842-7.061,0.492l-0.722-5.516c2.67-0.701,4.749-1.643,6.238-2.824
					c1.487-1.182,2.648-2.736,3.48-4.662l2.036-4.531c0.394-0.963,0.776-2.135,1.148-3.514s0.689-2.57,0.953-3.578l6.041-21.014
					H286.157z"/>
				<path fill="#FFFFFF" d="M316.035,257.16v8.273h-27.318v-7.945l6.305-0.328H316.035z M308.09,248.558v29.485
					c0,0.832,0.218,1.434,0.656,1.805c0.438,0.373,1.159,0.559,2.167,0.559h3.48l1.511,8.8c-0.92,0.394-2.059,0.712-3.415,0.952
					c-1.357,0.24-2.726,0.427-4.104,0.559c-1.379,0.131-2.594,0.197-3.645,0.197c-3.196,0-5.735-0.811-7.617-2.43
					c-1.883-1.619-2.824-3.875-2.824-6.765l-0.065-33.162H308.09z"/>
				<path fill="#FFFFFF" d="M332.32,257.16v32.834h-13.726V257.16H332.32z"/>
				<path fill="#FFFFFF" d="M353.399,256.24c1.356,0,2.845,0.066,4.465,0.197c1.619,0.131,3.24,0.373,4.86,0.723
					c1.619,0.351,3.086,0.854,4.399,1.51l-1.379,8.537c-2.102,0-3.94,0-5.517,0s-3.064,0-4.465,0c-1.402,0-2.507,0.176-3.316,0.525
					c-0.811,0.352-1.379,0.975-1.708,1.871c-0.328,0.898-0.492,2.201-0.492,3.908s0.164,3.021,0.492,3.939
					c0.329,0.92,0.897,1.555,1.708,1.904c0.81,0.352,1.914,0.525,3.316,0.525c0.743,0,1.674-0.01,2.791-0.033
					c1.116-0.021,2.353-0.064,3.71-0.131c1.356-0.065,2.714-0.164,4.071-0.295l1.248,8.602c-1.928,1.008-4.16,1.719-6.698,2.135
					c-2.54,0.416-5.079,0.624-7.618,0.624c-4.291,0-7.716-0.558-10.276-1.675c-2.562-1.116-4.4-2.943-5.517-5.482
					s-1.675-5.91-1.675-10.113c0-4.246,0.568-7.628,1.708-10.146c1.138-2.517,2.998-4.334,5.581-5.45S349.108,256.24,353.399,256.24
					z"/>
				<path fill="#FFFFFF" d="M384.066,244.026v17.599c0,1.664-0.11,3.372-0.328,5.123c-0.22,1.751-0.57,3.393-1.051,4.925
					c0.35,1.401,0.667,2.922,0.952,4.563c0.284,1.643,0.427,3.098,0.427,4.367v9.391h-13.79v-45.968H384.066z M387.678,268.061
					v7.749h-7.683v-7.749H387.678z M406.787,257.16l-6.895,10.77c-0.482,0.876-1.116,1.674-1.904,2.396s-1.424,1.238-1.904,1.543
					v0.264c0.48,0.262,1.116,0.832,1.904,1.707c0.788,0.876,1.422,1.773,1.904,2.692l8.143,13.462h-15.169l-9.588-18.189
					l8.405-14.645H406.787z"/>
				<path fill="#FFFFFF" d="M424.979,256.24c6.173,0,10.55,0.985,13.133,2.955c2.583,1.971,3.896,4.883,3.94,8.734
					c0.043,3.064-0.865,5.275-2.726,6.633c-1.861,1.357-5.198,2.035-10.014,2.035h-17.665v-6.501h13.79
					c1.488,0,2.43-0.142,2.824-0.427c0.394-0.284,0.591-0.975,0.591-2.068c0-1.051-0.263-1.729-0.788-2.036
					c-0.525-0.306-1.423-0.46-2.692-0.46c-1.271-0.043-2.232,0.088-2.89,0.395c-0.656,0.307-1.105,0.975-1.346,2.003
					c-0.241,1.028-0.361,2.638-0.361,4.826c0,2.015,0.142,3.591,0.427,4.729c0.284,1.139,0.843,1.948,1.675,2.43
					c0.831,0.481,2.057,0.722,3.677,0.722c1.313,0,3.163-0.043,5.55-0.131c2.385-0.087,4.979-0.284,7.781-0.591l1.248,8.274
					c-1.533,0.787-3.175,1.401-4.926,1.838c-1.751,0.438-3.557,0.744-5.417,0.92c-1.861,0.174-3.776,0.263-5.746,0.263
					c-4.554,0-8.209-0.636-10.967-1.904c-2.758-1.27-4.739-3.163-5.943-5.681c-1.204-2.517-1.806-5.637-1.806-9.357
					c0-4.334,0.612-7.781,1.839-10.343c1.225-2.562,3.206-4.41,5.943-5.55C416.846,256.811,420.469,256.24,424.979,256.24z"/>
				<path fill="#FFFFFF" d="M470.092,257.16v8.273h-27.318v-7.945l6.305-0.328H470.092z M462.146,248.558v29.485
					c0,0.832,0.218,1.434,0.656,1.805c0.438,0.373,1.159,0.559,2.167,0.559h3.48l1.511,8.8c-0.92,0.394-2.059,0.712-3.415,0.952
					c-1.357,0.24-2.726,0.427-4.104,0.559c-1.379,0.131-2.594,0.197-3.645,0.197c-3.196,0-5.735-0.811-7.617-2.43
					c-1.883-1.619-2.824-3.875-2.824-6.765l-0.065-33.162H462.146z"/>
			</g>
		</g>
		<path fill-rule="evenodd" clip-rule="evenodd" fill="#FFFFFF" stroke="#FFFFFF" stroke-width="3" stroke-miterlimit="10" d="
			M327.273,250.412c-1.095,1.09-2.284,1.151-3.309,0.134c-3.692-3.663-7.369-7.343-11.039-11.03
			c-0.928-0.934-0.951-2.225-0.115-3.078c0.854-0.871,2.175-0.835,3.136,0.107c1.009,0.99,2.003,1.994,3,2.996
			c2.183,2.19,4.362,4.381,6.509,6.537c0.112-0.023,0.144-0.021,0.158-0.036c0,0,15.733-15.663,17.259-17.226
			c0.536-0.549,1.161-0.861,1.931-0.747c0.828,0.124,1.432,0.581,1.705,1.388c0.28,0.83,0.114,1.589-0.504,2.213L327.273,250.412z"
			/>
	</g>
	<g>
		<g>
			<path fill="#4A95D1" d="M106.066,343.591c-0.25,0.068-0.641,0.136-1.173,0.204s-1.06,0.102-1.581,0.102s-0.98-0.039-1.377-0.119
				c-0.396-0.079-0.73-0.221-1.002-0.425c-0.272-0.204-0.477-0.487-0.612-0.85s-0.204-0.838-0.204-1.428v-16.013
				c0-0.477,0.13-0.845,0.391-1.105c0.261-0.26,0.617-0.47,1.071-0.629c0.771-0.271,1.649-0.47,2.635-0.595
				c0.985-0.124,1.978-0.188,2.975-0.188c3.128,0,5.519,0.669,7.174,2.006c1.653,1.338,2.481,3.151,2.481,5.44
				c0,1.11-0.176,2.113-0.527,3.009s-0.872,1.665-1.563,2.312c-0.691,0.646-1.563,1.145-2.618,1.496
				c-1.053,0.352-2.271,0.526-3.654,0.526h-2.414V343.591z M107.834,332.678c0.953,0,1.684-0.221,2.193-0.663
				s0.766-1.116,0.766-2.022c0-0.861-0.268-1.524-0.8-1.989c-0.532-0.464-1.309-0.697-2.329-0.697c-0.362,0-0.662,0.006-0.9,0.018
				s-0.482,0.039-0.73,0.085v5.27H107.834z"/>
			<path fill="#4A95D1" d="M124.527,343.692c-0.227,0.068-0.584,0.137-1.07,0.204c-0.488,0.068-0.992,0.103-1.514,0.103
				c-0.498,0-0.946-0.034-1.343-0.103c-0.396-0.067-0.731-0.204-1.003-0.407c-0.271-0.204-0.481-0.481-0.629-0.833
				s-0.221-0.811-0.221-1.377V331.08c0-0.521,0.096-0.97,0.289-1.344c0.191-0.374,0.47-0.708,0.832-1.003
				c0.363-0.294,0.811-0.561,1.344-0.799c0.532-0.237,1.104-0.447,1.717-0.629c0.611-0.181,1.246-0.322,1.904-0.425
				c0.656-0.102,1.313-0.153,1.971-0.153c1.088,0,1.949,0.21,2.584,0.629c0.635,0.42,0.953,1.105,0.953,2.058
				c0,0.317-0.047,0.629-0.137,0.935c-0.091,0.306-0.204,0.584-0.34,0.833c-0.477,0-0.964,0.022-1.462,0.068
				c-0.499,0.045-0.985,0.113-1.462,0.204s-0.924,0.187-1.343,0.288c-0.42,0.103-0.776,0.222-1.071,0.357V343.692z"/>
			<path fill="#4A95D1" d="M149.176,335.466c0,1.405-0.216,2.657-0.646,3.756c-0.43,1.1-1.036,2.023-1.818,2.771
				c-0.781,0.748-1.717,1.314-2.805,1.699c-1.088,0.386-2.301,0.578-3.638,0.578c-1.338,0-2.55-0.204-3.638-0.611
				c-1.088-0.408-2.023-0.991-2.805-1.751c-0.782-0.76-1.389-1.684-1.819-2.771s-0.646-2.312-0.646-3.671
				c0-1.338,0.215-2.55,0.646-3.639c0.431-1.088,1.037-2.011,1.819-2.771c0.781-0.759,1.717-1.343,2.805-1.751
				s2.3-0.611,3.638-0.611c1.337,0,2.55,0.209,3.638,0.629c1.088,0.419,2.023,1.009,2.805,1.768c0.782,0.76,1.389,1.683,1.818,2.771
				C148.96,332.949,149.176,334.151,149.176,335.466z M137.277,335.466c0,1.382,0.266,2.442,0.799,3.179
				c0.531,0.736,1.274,1.104,2.227,1.104c0.951,0,1.683-0.374,2.192-1.122c0.511-0.748,0.765-1.802,0.765-3.161
				c0-1.36-0.26-2.408-0.781-3.146c-0.521-0.736-1.258-1.104-2.21-1.104s-1.688,0.368-2.21,1.104
				C137.537,333.058,137.277,334.105,137.277,335.466z"/>
			<path fill="#4A95D1" d="M152.066,327.204c0-1.156,0.197-2.147,0.594-2.975s0.936-1.508,1.615-2.04s1.479-0.924,2.396-1.173
				s1.898-0.374,2.941-0.374c1.678,0,2.912,0.221,3.706,0.663c0.793,0.441,1.189,1.195,1.189,2.261c0,0.453-0.097,0.861-0.288,1.224
				c-0.193,0.363-0.403,0.635-0.629,0.816c-0.432-0.113-0.879-0.21-1.344-0.289s-1.003-0.119-1.615-0.119
				c-0.975,0-1.733,0.164-2.277,0.493c-0.544,0.328-0.816,0.9-0.816,1.717v1.088h5.576c0.136,0.249,0.266,0.561,0.391,0.935
				s0.188,0.788,0.188,1.241c0,0.793-0.176,1.365-0.527,1.717s-0.822,0.527-1.41,0.527h-3.91v10.776
				c-0.227,0.068-0.584,0.137-1.071,0.204c-0.487,0.068-0.991,0.103-1.513,0.103c-0.499,0-0.947-0.034-1.343-0.103
				c-0.397-0.067-0.731-0.204-1.003-0.407c-0.271-0.204-0.482-0.481-0.629-0.833c-0.148-0.352-0.221-0.811-0.221-1.377V327.204z"/>
			<path fill="#4A95D1" d="M174.606,344.271c-1.338,0-2.579-0.187-3.723-0.561c-1.146-0.374-2.142-0.936-2.992-1.683
				c-0.85-0.748-1.519-1.688-2.006-2.822c-0.487-1.133-0.731-2.459-0.731-3.978c0-1.496,0.244-2.782,0.731-3.859
				c0.487-1.076,1.128-1.96,1.921-2.651s1.7-1.201,2.721-1.53c1.02-0.328,2.062-0.492,3.127-0.492c1.201,0,2.295,0.182,3.281,0.544
				c0.985,0.362,1.836,0.861,2.549,1.495c0.715,0.635,1.27,1.395,1.666,2.278s0.596,1.848,0.596,2.89
				c0,0.771-0.216,1.36-0.646,1.768c-0.431,0.408-1.031,0.669-1.802,0.782l-8.397,1.258c0.25,0.748,0.76,1.31,1.53,1.684
				c0.771,0.373,1.653,0.561,2.651,0.561c0.93,0,1.808-0.119,2.635-0.357c0.828-0.237,1.502-0.515,2.023-0.833
				c0.362,0.228,0.668,0.544,0.918,0.952c0.249,0.408,0.373,0.839,0.373,1.292c0,1.021-0.475,1.779-1.428,2.278
				c-0.725,0.386-1.541,0.646-2.447,0.781C176.25,344.203,175.399,344.271,174.606,344.271z M173.654,330.91
				c-0.544,0-1.015,0.091-1.41,0.271c-0.397,0.182-0.721,0.414-0.97,0.697s-0.437,0.601-0.561,0.951
				c-0.125,0.353-0.198,0.709-0.222,1.071l5.814-0.952c-0.068-0.453-0.318-0.906-0.748-1.359
				C175.127,331.137,174.492,330.91,173.654,330.91z"/>
			<path fill="#4A95D1" d="M198.473,338.797c0,1.723-0.646,3.071-1.938,4.046c-1.293,0.975-3.196,1.462-5.712,1.462
				c-0.952,0-1.836-0.068-2.651-0.204c-0.816-0.136-1.514-0.346-2.092-0.629s-1.031-0.64-1.359-1.07
				c-0.329-0.431-0.493-0.94-0.493-1.53c0-0.544,0.113-1.003,0.34-1.377s0.499-0.686,0.815-0.935
				c0.658,0.362,1.412,0.686,2.262,0.969s1.83,0.425,2.94,0.425c0.702,0,1.241-0.103,1.615-0.306
				c0.374-0.204,0.561-0.477,0.561-0.816c0-0.317-0.136-0.566-0.407-0.748c-0.272-0.181-0.727-0.328-1.36-0.441l-1.021-0.204
				c-1.971-0.386-3.439-0.991-4.402-1.819c-0.963-0.827-1.445-2.011-1.445-3.553c0-0.838,0.182-1.598,0.545-2.277
				c0.361-0.681,0.872-1.246,1.529-1.7c0.657-0.453,1.445-0.805,2.363-1.054s1.932-0.374,3.043-0.374
				c0.838,0,1.625,0.063,2.362,0.187c0.736,0.125,1.377,0.313,1.921,0.562s0.975,0.572,1.292,0.969s0.476,0.867,0.476,1.411
				c0,0.521-0.096,0.969-0.289,1.343c-0.192,0.374-0.436,0.686-0.73,0.935c-0.182-0.113-0.453-0.232-0.816-0.356
				c-0.362-0.125-0.76-0.238-1.189-0.341c-0.431-0.102-0.867-0.187-1.309-0.255c-0.442-0.067-0.846-0.102-1.207-0.102
				c-0.748,0-1.326,0.085-1.734,0.255s-0.611,0.437-0.611,0.799c0,0.25,0.113,0.454,0.34,0.612s0.656,0.306,1.291,0.441l1.055,0.238
				c2.176,0.499,3.723,1.185,4.641,2.057C198.014,336.287,198.473,337.415,198.473,338.797z"/>
			<path fill="#4A95D1" d="M215.199,338.797c0,1.723-0.646,3.071-1.938,4.046c-1.293,0.975-3.196,1.462-5.712,1.462
				c-0.952,0-1.836-0.068-2.651-0.204c-0.816-0.136-1.514-0.346-2.092-0.629s-1.031-0.64-1.359-1.07
				c-0.329-0.431-0.493-0.94-0.493-1.53c0-0.544,0.113-1.003,0.34-1.377s0.499-0.686,0.815-0.935
				c0.658,0.362,1.412,0.686,2.262,0.969s1.83,0.425,2.94,0.425c0.702,0,1.241-0.103,1.615-0.306
				c0.374-0.204,0.561-0.477,0.561-0.816c0-0.317-0.136-0.566-0.407-0.748c-0.272-0.181-0.727-0.328-1.36-0.441l-1.021-0.204
				c-1.971-0.386-3.439-0.991-4.402-1.819c-0.963-0.827-1.445-2.011-1.445-3.553c0-0.838,0.182-1.598,0.545-2.277
				c0.361-0.681,0.872-1.246,1.529-1.7c0.657-0.453,1.445-0.805,2.363-1.054s1.932-0.374,3.043-0.374
				c0.838,0,1.625,0.063,2.362,0.187c0.736,0.125,1.377,0.313,1.921,0.562s0.975,0.572,1.292,0.969s0.476,0.867,0.476,1.411
				c0,0.521-0.096,0.969-0.289,1.343c-0.192,0.374-0.436,0.686-0.73,0.935c-0.182-0.113-0.453-0.232-0.816-0.356
				c-0.362-0.125-0.76-0.238-1.189-0.341c-0.431-0.102-0.867-0.187-1.309-0.255c-0.442-0.067-0.846-0.102-1.207-0.102
				c-0.748,0-1.326,0.085-1.734,0.255s-0.611,0.437-0.611,0.799c0,0.25,0.113,0.454,0.34,0.612s0.656,0.306,1.291,0.441l1.055,0.238
				c2.176,0.499,3.723,1.185,4.641,2.057C214.74,336.287,215.199,337.415,215.199,338.797z"/>
			<path fill="#4A95D1" d="M217.851,322.614c0-0.861,0.289-1.586,0.867-2.176c0.577-0.589,1.343-0.884,2.294-0.884
				c0.953,0,1.718,0.295,2.295,0.884c0.578,0.59,0.867,1.314,0.867,2.176s-0.289,1.587-0.867,2.176
				c-0.577,0.59-1.342,0.884-2.295,0.884c-0.951,0-1.717-0.294-2.294-0.884C218.14,324.201,217.851,323.476,217.851,322.614z
				 M223.902,343.692c-0.25,0.046-0.617,0.107-1.105,0.188c-0.487,0.079-0.98,0.119-1.479,0.119s-0.947-0.034-1.343-0.103
				c-0.397-0.067-0.731-0.204-1.003-0.407c-0.271-0.204-0.482-0.481-0.629-0.833c-0.148-0.352-0.221-0.811-0.221-1.377v-13.837
				c0.248-0.046,0.617-0.107,1.104-0.188c0.487-0.079,0.979-0.119,1.479-0.119c0.498,0,0.945,0.034,1.342,0.103
				c0.396,0.067,0.731,0.204,1.004,0.407c0.271,0.204,0.48,0.482,0.629,0.833c0.146,0.352,0.221,0.811,0.221,1.377V343.692z"/>
			<path fill="#4A95D1" d="M244.675,335.466c0,1.405-0.216,2.657-0.646,3.756c-0.432,1.1-1.037,2.023-1.819,2.771
				s-1.717,1.314-2.805,1.699c-1.088,0.386-2.301,0.578-3.638,0.578c-1.338,0-2.55-0.204-3.638-0.611
				c-1.088-0.408-2.022-0.991-2.806-1.751c-0.781-0.76-1.388-1.684-1.818-2.771s-0.646-2.312-0.646-3.671
				c0-1.338,0.216-2.55,0.646-3.639c0.431-1.088,1.037-2.011,1.818-2.771c0.783-0.759,1.718-1.343,2.806-1.751
				s2.3-0.611,3.638-0.611c1.337,0,2.55,0.209,3.638,0.629c1.088,0.419,2.022,1.009,2.805,1.768c0.782,0.76,1.388,1.683,1.819,2.771
				C244.459,332.949,244.675,334.151,244.675,335.466z M232.775,335.466c0,1.382,0.267,2.442,0.799,3.179
				c0.533,0.736,1.275,1.104,2.227,1.104c0.953,0,1.684-0.374,2.193-1.122s0.766-1.802,0.766-3.161c0-1.36-0.262-2.408-0.782-3.146
				c-0.522-0.736-1.259-1.104-2.21-1.104c-0.952,0-1.689,0.368-2.21,1.104C233.036,333.058,232.775,334.105,232.775,335.466z"/>
			<path fill="#4A95D1" d="M257.968,333.256c0-0.702-0.198-1.219-0.595-1.547c-0.396-0.329-0.936-0.493-1.615-0.493
				c-0.453,0-0.9,0.057-1.343,0.17s-0.821,0.283-1.14,0.51v11.797c-0.227,0.068-0.583,0.137-1.07,0.204
				c-0.488,0.068-0.992,0.103-1.513,0.103c-0.499,0-0.946-0.034-1.343-0.103c-0.396-0.067-0.731-0.204-1.004-0.407
				c-0.271-0.204-0.48-0.481-0.629-0.833c-0.146-0.352-0.221-0.811-0.221-1.377V331.08c0-0.612,0.131-1.11,0.391-1.496
				c0.261-0.386,0.618-0.736,1.072-1.054c0.77-0.544,1.738-0.986,2.906-1.326c1.167-0.34,2.465-0.51,3.893-0.51
				c2.561,0,4.533,0.561,5.916,1.683c1.382,1.122,2.073,2.681,2.073,4.675v10.641c-0.227,0.068-0.583,0.137-1.071,0.204
				c-0.487,0.068-0.991,0.103-1.512,0.103c-0.5,0-0.947-0.034-1.344-0.103c-0.396-0.067-0.73-0.204-1.002-0.407
				c-0.273-0.204-0.482-0.481-0.63-0.833s-0.221-0.811-0.221-1.377V333.256z"/>
			<path fill="#4A95D1" d="M274.116,326.694c1.224,0,2.34,0.124,3.349,0.374c1.008,0.249,1.87,0.629,2.584,1.139
				s1.264,1.155,1.648,1.938c0.386,0.782,0.578,1.706,0.578,2.771v7.615c0,0.59-0.164,1.07-0.492,1.444
				c-0.329,0.374-0.721,0.697-1.174,0.97c-1.473,0.884-3.547,1.325-6.221,1.325c-1.202,0-2.284-0.113-3.247-0.34
				c-0.964-0.227-1.791-0.566-2.481-1.02c-0.692-0.453-1.225-1.031-1.599-1.734c-0.374-0.702-0.561-1.518-0.561-2.447
				c0-1.564,0.464-2.766,1.394-3.604c0.93-0.838,2.368-1.359,4.318-1.563l4.453-0.476v-0.238c0-0.657-0.289-1.127-0.867-1.411
				c-0.578-0.283-1.41-0.425-2.498-0.425c-0.862,0-1.7,0.091-2.516,0.271c-0.816,0.182-1.553,0.408-2.211,0.681
				c-0.295-0.204-0.543-0.516-0.748-0.936c-0.203-0.419-0.306-0.854-0.306-1.309c0-0.589,0.142-1.06,0.425-1.411
				c0.283-0.351,0.72-0.651,1.309-0.9c0.658-0.249,1.434-0.431,2.33-0.544C272.479,326.751,273.322,326.694,274.116,326.694z
				 M274.389,340.055c0.385,0,0.81-0.039,1.274-0.118c0.464-0.08,0.81-0.188,1.037-0.323v-2.72l-2.448,0.204
				c-0.635,0.045-1.156,0.182-1.563,0.407c-0.408,0.228-0.612,0.567-0.612,1.021s0.176,0.821,0.527,1.104
				C272.955,339.914,273.549,340.055,274.389,340.055z"/>
			<path fill="#4A95D1" d="M291.692,343.692c-0.25,0.046-0.618,0.107-1.104,0.188c-0.488,0.079-0.981,0.119-1.479,0.119
				c-0.499,0-0.946-0.034-1.343-0.103c-0.396-0.067-0.73-0.204-1.003-0.407c-0.271-0.204-0.481-0.481-0.629-0.833
				s-0.221-0.811-0.221-1.377v-19.719c0.249-0.045,0.617-0.107,1.104-0.188c0.487-0.079,0.98-0.119,1.479-0.119
				c0.498,0,0.945,0.034,1.343,0.103c0.396,0.068,0.73,0.204,1.003,0.408c0.271,0.204,0.481,0.481,0.629,0.833
				c0.146,0.352,0.221,0.811,0.221,1.377V343.692z"/>
			<path fill="#4A95D1" d="M308.42,335.533c-0.998-0.34-1.904-0.686-2.72-1.037c-0.816-0.351-1.519-0.775-2.108-1.274
				c-0.59-0.498-1.048-1.094-1.377-1.785c-0.328-0.691-0.492-1.535-0.492-2.532c0-1.927,0.741-3.468,2.227-4.624
				c1.484-1.156,3.563-1.734,6.238-1.734c0.975,0,1.881,0.068,2.72,0.204s1.559,0.346,2.159,0.629
				c0.601,0.284,1.071,0.646,1.411,1.088c0.34,0.442,0.51,0.958,0.51,1.547c0,0.59-0.136,1.094-0.408,1.514
				c-0.271,0.419-0.601,0.776-0.985,1.07c-0.499-0.317-1.168-0.595-2.006-0.833c-0.839-0.237-1.757-0.356-2.754-0.356
				c-1.021,0-1.769,0.142-2.244,0.425s-0.714,0.641-0.714,1.071c0,0.34,0.146,0.617,0.441,0.832
				c0.295,0.216,0.736,0.414,1.326,0.596l1.802,0.578c2.131,0.68,3.769,1.547,4.913,2.601s1.717,2.487,1.717,4.301
				c0,1.927-0.76,3.484-2.278,4.675c-1.519,1.189-3.751,1.784-6.697,1.784c-1.043,0-2.012-0.085-2.906-0.255
				c-0.896-0.17-1.678-0.419-2.347-0.748c-0.668-0.328-1.189-0.736-1.563-1.224s-0.561-1.048-0.561-1.683
				c0-0.657,0.191-1.219,0.577-1.684c0.386-0.464,0.805-0.821,1.258-1.07c0.635,0.499,1.411,0.93,2.329,1.292
				s1.921,0.544,3.009,0.544c1.11,0,1.893-0.17,2.346-0.51c0.453-0.341,0.681-0.736,0.681-1.19c0-0.453-0.182-0.799-0.544-1.037
				c-0.363-0.237-0.873-0.47-1.53-0.696L308.42,335.533z"/>
			<path fill="#4A95D1" d="M329.668,344.271c-1.337,0-2.578-0.187-3.723-0.561s-2.142-0.936-2.991-1.683
				c-0.851-0.748-1.519-1.688-2.006-2.822c-0.488-1.133-0.731-2.459-0.731-3.978c0-1.496,0.243-2.782,0.731-3.859
				c0.487-1.076,1.127-1.96,1.921-2.651c0.793-0.691,1.699-1.201,2.72-1.53c1.02-0.328,2.062-0.492,3.128-0.492
				c1.201,0,2.295,0.182,3.28,0.544c0.986,0.362,1.836,0.861,2.55,1.495c0.714,0.635,1.27,1.395,1.666,2.278s0.595,1.848,0.595,2.89
				c0,0.771-0.216,1.36-0.646,1.768c-0.431,0.408-1.032,0.669-1.802,0.782l-8.397,1.258c0.249,0.748,0.759,1.31,1.529,1.684
				c0.771,0.373,1.654,0.561,2.652,0.561c0.929,0,1.807-0.119,2.635-0.357c0.827-0.237,1.501-0.515,2.022-0.833
				c0.362,0.228,0.669,0.544,0.918,0.952s0.374,0.839,0.374,1.292c0,1.021-0.476,1.779-1.428,2.278
				c-0.726,0.386-1.542,0.646-2.448,0.781C331.312,344.203,330.462,344.271,329.668,344.271z M328.717,330.91
				c-0.544,0-1.015,0.091-1.411,0.271c-0.396,0.182-0.72,0.414-0.969,0.697c-0.25,0.283-0.437,0.601-0.562,0.951
				c-0.125,0.353-0.198,0.709-0.221,1.071l5.813-0.952c-0.068-0.453-0.317-0.906-0.748-1.359S329.555,330.91,328.717,330.91z"/>
			<path fill="#4A95D1" d="M345.477,343.692c-0.25,0.046-0.618,0.107-1.104,0.188c-0.488,0.079-0.981,0.119-1.479,0.119
				c-0.499,0-0.946-0.034-1.343-0.103c-0.396-0.067-0.73-0.204-1.003-0.407c-0.271-0.204-0.481-0.481-0.629-0.833
				s-0.221-0.811-0.221-1.377v-19.719c0.249-0.045,0.617-0.107,1.104-0.188c0.487-0.079,0.98-0.119,1.479-0.119
				c0.498,0,0.945,0.034,1.343,0.103c0.396,0.068,0.73,0.204,1.003,0.408c0.271,0.204,0.481,0.481,0.629,0.833
				c0.146,0.352,0.221,0.811,0.221,1.377V343.692z"/>
			<path fill="#4A95D1" d="M354.996,343.692c-0.25,0.046-0.618,0.107-1.104,0.188c-0.488,0.079-0.981,0.119-1.479,0.119
				c-0.499,0-0.946-0.034-1.343-0.103c-0.396-0.067-0.73-0.204-1.003-0.407c-0.271-0.204-0.481-0.481-0.629-0.833
				s-0.221-0.811-0.221-1.377v-19.719c0.249-0.045,0.617-0.107,1.104-0.188c0.487-0.079,0.98-0.119,1.479-0.119
				c0.498,0,0.945,0.034,1.343,0.103c0.396,0.068,0.73,0.204,1.003,0.408c0.271,0.204,0.481,0.481,0.629,0.833
				c0.146,0.352,0.221,0.811,0.221,1.377V343.692z"/>
			<path fill="#4A95D1" d="M367.371,344.271c-1.337,0-2.578-0.187-3.723-0.561s-2.142-0.936-2.991-1.683
				c-0.851-0.748-1.519-1.688-2.006-2.822c-0.488-1.133-0.731-2.459-0.731-3.978c0-1.496,0.243-2.782,0.731-3.859
				c0.487-1.076,1.127-1.96,1.921-2.651c0.793-0.691,1.699-1.201,2.72-1.53c1.02-0.328,2.062-0.492,3.128-0.492
				c1.201,0,2.295,0.182,3.28,0.544c0.986,0.362,1.836,0.861,2.55,1.495c0.714,0.635,1.27,1.395,1.666,2.278s0.595,1.848,0.595,2.89
				c0,0.771-0.216,1.36-0.646,1.768c-0.431,0.408-1.032,0.669-1.802,0.782l-8.397,1.258c0.249,0.748,0.759,1.31,1.529,1.684
				c0.771,0.373,1.654,0.561,2.652,0.561c0.929,0,1.807-0.119,2.635-0.357c0.827-0.237,1.501-0.515,2.022-0.833
				c0.362,0.228,0.669,0.544,0.918,0.952s0.374,0.839,0.374,1.292c0,1.021-0.476,1.779-1.428,2.278
				c-0.726,0.386-1.542,0.646-2.448,0.781C369.015,344.203,368.165,344.271,367.371,344.271z M366.42,330.91
				c-0.544,0-1.015,0.091-1.411,0.271c-0.396,0.182-0.72,0.414-0.969,0.697c-0.25,0.283-0.437,0.601-0.562,0.951
				c-0.125,0.353-0.198,0.709-0.221,1.071l5.813-0.952c-0.068-0.453-0.317-0.906-0.748-1.359S367.258,330.91,366.42,330.91z"/>
			<path fill="#4A95D1" d="M383.078,343.692c-0.228,0.068-0.584,0.137-1.071,0.204c-0.487,0.068-0.992,0.103-1.513,0.103
				c-0.499,0-0.947-0.034-1.343-0.103c-0.397-0.067-0.731-0.204-1.003-0.407c-0.272-0.204-0.482-0.481-0.629-0.833
				c-0.148-0.352-0.222-0.811-0.222-1.377V331.08c0-0.521,0.097-0.97,0.289-1.344s0.471-0.708,0.833-1.003
				c0.362-0.294,0.811-0.561,1.343-0.799c0.532-0.237,1.105-0.447,1.717-0.629c0.612-0.181,1.247-0.322,1.904-0.425
				c0.657-0.102,1.314-0.153,1.972-0.153c1.088,0,1.949,0.21,2.584,0.629c0.634,0.42,0.952,1.105,0.952,2.058
				c0,0.317-0.046,0.629-0.136,0.935c-0.092,0.306-0.204,0.584-0.341,0.833c-0.476,0-0.963,0.022-1.462,0.068
				c-0.498,0.045-0.985,0.113-1.462,0.204c-0.476,0.091-0.924,0.187-1.343,0.288c-0.419,0.103-0.776,0.222-1.07,0.357V343.692z"/>
			<path fill="#4A95D1" d="M405.21,338.797c0,1.723-0.646,3.071-1.938,4.046c-1.292,0.975-3.196,1.462-5.712,1.462
				c-0.952,0-1.836-0.068-2.652-0.204c-0.815-0.136-1.513-0.346-2.091-0.629s-1.031-0.64-1.359-1.07
				c-0.329-0.431-0.493-0.94-0.493-1.53c0-0.544,0.113-1.003,0.34-1.377s0.498-0.686,0.816-0.935
				c0.657,0.362,1.41,0.686,2.261,0.969c0.85,0.283,1.83,0.425,2.94,0.425c0.702,0,1.241-0.103,1.615-0.306
				c0.374-0.204,0.561-0.477,0.561-0.816c0-0.317-0.136-0.566-0.408-0.748c-0.271-0.181-0.726-0.328-1.359-0.441l-1.021-0.204
				c-1.972-0.386-3.439-0.991-4.402-1.819c-0.964-0.827-1.444-2.011-1.444-3.553c0-0.838,0.181-1.598,0.544-2.277
				c0.362-0.681,0.872-1.246,1.529-1.7c0.657-0.453,1.445-0.805,2.363-1.054s1.932-0.374,3.043-0.374
				c0.838,0,1.626,0.063,2.362,0.187c0.736,0.125,1.377,0.313,1.921,0.562s0.975,0.572,1.292,0.969s0.476,0.867,0.476,1.411
				c0,0.521-0.097,0.969-0.289,1.343s-0.437,0.686-0.73,0.935c-0.182-0.113-0.454-0.232-0.816-0.356
				c-0.362-0.125-0.759-0.238-1.189-0.341c-0.431-0.102-0.867-0.187-1.309-0.255c-0.442-0.067-0.845-0.102-1.207-0.102
				c-0.748,0-1.326,0.085-1.734,0.255s-0.611,0.437-0.611,0.799c0,0.25,0.112,0.454,0.34,0.612c0.226,0.158,0.657,0.306,1.292,0.441
				l1.054,0.238c2.176,0.499,3.723,1.185,4.641,2.057C404.751,336.287,405.21,337.415,405.21,338.797z"/>
			<path fill="#4A95D1" d="M418.401,343.829c-0.976,0-1.746-0.283-2.313-0.851c-0.566-0.566-0.85-1.337-0.85-2.312V323.09
				c0.249-0.045,0.646-0.107,1.189-0.187s1.065-0.119,1.564-0.119c0.521,0,0.979,0.04,1.377,0.119
				c0.396,0.079,0.73,0.221,1.003,0.425c0.271,0.204,0.476,0.487,0.611,0.85c0.137,0.363,0.204,0.839,0.204,1.429v13.429h7.786
				c0.158,0.25,0.306,0.584,0.441,1.003c0.136,0.42,0.204,0.855,0.204,1.309c0,0.907-0.192,1.547-0.578,1.921
				s-0.896,0.562-1.529,0.562H418.401z"/>
			<path fill="#4A95D1" d="M439.037,326.694c1.224,0,2.34,0.124,3.349,0.374c1.009,0.249,1.87,0.629,2.584,1.139
				s1.264,1.155,1.648,1.938c0.386,0.782,0.578,1.706,0.578,2.771v7.615c0,0.59-0.164,1.07-0.492,1.444
				c-0.329,0.374-0.721,0.697-1.174,0.97c-1.474,0.884-3.547,1.325-6.221,1.325c-1.202,0-2.284-0.113-3.247-0.34
				c-0.964-0.227-1.791-0.566-2.482-1.02s-1.224-1.031-1.598-1.734c-0.374-0.702-0.561-1.518-0.561-2.447
				c0-1.564,0.464-2.766,1.394-3.604c0.93-0.838,2.368-1.359,4.317-1.563l4.454-0.476v-0.238c0-0.657-0.289-1.127-0.867-1.411
				c-0.578-0.283-1.41-0.425-2.498-0.425c-0.862,0-1.7,0.091-2.517,0.271c-0.815,0.182-1.553,0.408-2.21,0.681
				c-0.294-0.204-0.544-0.516-0.747-0.936c-0.204-0.419-0.307-0.854-0.307-1.309c0-0.589,0.142-1.06,0.425-1.411
				c0.283-0.351,0.72-0.651,1.31-0.9c0.657-0.249,1.433-0.431,2.328-0.544S438.243,326.694,439.037,326.694z M439.31,340.055
				c0.385,0,0.81-0.039,1.274-0.118c0.464-0.08,0.811-0.188,1.037-0.323v-2.72l-2.448,0.204c-0.635,0.045-1.155,0.182-1.563,0.407
				c-0.408,0.228-0.612,0.567-0.612,1.021s0.176,0.821,0.527,1.104C437.875,339.914,438.471,340.055,439.31,340.055z"/>
			<path fill="#4A95D1" d="M450.8,321.595c0.227-0.068,0.589-0.142,1.088-0.222c0.498-0.079,1.008-0.119,1.53-0.119
				c0.498,0,0.945,0.034,1.343,0.103c0.396,0.068,0.73,0.204,1.003,0.408c0.271,0.204,0.476,0.481,0.611,0.833
				c0.137,0.352,0.204,0.811,0.204,1.377v3.331c0.566-0.226,1.105-0.385,1.615-0.476s1.071-0.136,1.683-0.136
				c1.088,0,2.119,0.192,3.094,0.577c0.975,0.386,1.836,0.947,2.584,1.684s1.337,1.648,1.768,2.736s0.646,2.346,0.646,3.774
				c0,1.473-0.221,2.759-0.663,3.858s-1.06,2.012-1.853,2.736c-0.794,0.726-1.763,1.275-2.907,1.649s-2.408,0.561-3.791,0.561
				c-1.495,0-2.766-0.176-3.808-0.526c-1.043-0.352-1.927-0.787-2.651-1.31c-0.998-0.702-1.496-1.608-1.496-2.72V321.595z
				 M458.755,339.715c1.043,0,1.854-0.356,2.432-1.07c0.577-0.714,0.866-1.773,0.866-3.179c0-1.429-0.295-2.493-0.884-3.196
				c-0.59-0.702-1.383-1.054-2.38-1.054c-0.453,0-0.845,0.046-1.173,0.136c-0.329,0.091-0.686,0.227-1.071,0.408v7.411
				c0.25,0.159,0.55,0.289,0.901,0.392C457.798,339.664,458.233,339.715,458.755,339.715z"/>
		</g>
	</g>
</g>
</svg>
