<svg id="Layer_1" data-name="Layer 1" xmlns="http://www.w3.org/2000/svg" viewBox="0 0 122.87 122.88"><title>date-18</title><path fill="#4C5271" d="M81.6,4.73C81.6,2.12,84.18,0,87.37,0s5.77,2.12,5.77,4.73V25.45c0,2.61-2.58,4.73-5.77,4.73s-5.77-2.12-5.77-4.73V4.73ZM39.65,103.41V69.33H32.54V61.84L41,58.22H51.36v45.19Zm30.9.37a25.35,25.35,0,0,1-4.53-.4,11.46,11.46,0,0,1-4-1.47,7.79,7.79,0,0,1-2.84-3.11,11.63,11.63,0,0,1-1.05-5.34v-6a10.38,10.38,0,0,1,.42-2.9A6.85,6.85,0,0,1,59.93,82a4.57,4.57,0,0,1,2.65-1.51A6.67,6.67,0,0,1,60,78.32a5.91,5.91,0,0,1-.88-2.66c-.08-1-.12-2-.12-3V67.58a9,9,0,0,1,1.54-5.5,8.6,8.6,0,0,1,4-2.95,15.68,15.68,0,0,1,5.34-.91h8.57a15.6,15.6,0,0,1,5.37.91,8.57,8.57,0,0,1,4,2.95,8.93,8.93,0,0,1,1.54,5.5v5.06a16.23,16.23,0,0,1-.12,1.69,12.47,12.47,0,0,1-.48,2.27,5.7,5.7,0,0,1-1.09,2,3,3,0,0,1-1.93,1,4.65,4.65,0,0,1,3,2,8.57,8.57,0,0,1,1.21,3.11,17.43,17.43,0,0,1,.27,2.78v6c0,2.94-.55,5.14-1.63,6.61a7.85,7.85,0,0,1-4.29,3,20.62,20.62,0,0,1-5.73.76Zm2.11-9.9H75.8c1.32,0,2.13-.25,2.41-.75a4.18,4.18,0,0,0,.42-2V88.27a3,3,0,0,0-.69-2,2.53,2.53,0,0,0-2-.82H72.66a3.51,3.51,0,0,0-1.27.22,2.12,2.12,0,0,0-.87.6,2.69,2.69,0,0,0-.52.9,3.42,3.42,0,0,0-.18,1.12v2.84a2.92,2.92,0,0,0,.64,2.17,3.17,3.17,0,0,0,2.2.6Zm0-18.34H75.8a2.67,2.67,0,0,0,1.53-.33,1.52,1.52,0,0,0,.58-1.06A11.28,11.28,0,0,0,78,72.34V70.47c0-1.16-.23-1.85-.7-2a3.8,3.8,0,0,0-1.53-.3H72.66a3.36,3.36,0,0,0-1.66.33c-.38.22-.57.9-.57,2v1.87c0,1.45.17,2.35.51,2.69a2.37,2.37,0,0,0,1.72.51Zm-43-70.81C29.61,2.12,32.19,0,35.38,0s5.77,2.12,5.77,4.73V25.45c0,2.61-2.58,4.73-5.77,4.73s-5.77-2.12-5.77-4.73V4.73ZM6.4,38.76H116.46V21.47a3,3,0,0,0-.86-2.07,2.92,2.92,0,0,0-2.07-.86H103a3.2,3.2,0,1,1,0-6.4h10.55a9.36,9.36,0,0,1,9.33,9.33v92.08a9.36,9.36,0,0,1-9.33,9.33H9.33A9.36,9.36,0,0,1,0,113.54V21.47a9.36,9.36,0,0,1,9.33-9.33H20.6a3.2,3.2,0,1,1,0,6.4H9.33a3,3,0,0,0-2.07.86,2.92,2.92,0,0,0-.86,2.07V38.76Zm110.07,6.41H6.4v68.37a3,3,0,0,0,.86,2.07,2.92,2.92,0,0,0,2.07.86H113.54a3,3,0,0,0,2.07-.86,2.92,2.92,0,0,0,.86-2.07V45.17Zm-66-26.63a3.2,3.2,0,0,1,0-6.4H71.91a3.2,3.2,0,1,1,0,6.4Z"/></svg>