<svg width="12" height="20" viewBox="0 0 12 20" fill="none" xmlns="http://www.w3.org/2000/svg">
<path d="M5.2 19.3V17.1C4.32 17.0333 3.48667 16.8733 2.7 16.62C1.92667 16.3533 1.25333 15.9867 0.68 15.52L1.46 13.5C2.08667 13.9667 2.77333 14.3267 3.52 14.58C4.26667 14.8333 5.08667 14.96 5.98 14.96C6.95333 14.96 7.66667 14.7867 8.12 14.44C8.57333 14.0933 8.8 13.66 8.8 13.14C8.8 12.6733 8.64667 12.3 8.34 12.02C8.03333 11.74 7.48667 11.5133 6.7 11.34L4.58 10.88C3.38 10.6133 2.47333 10.1733 1.86 9.56C1.26 8.93333 0.96 8.10667 0.96 7.08C0.96 5.96 1.34 5.02 2.1 4.26C2.87333 3.48667 3.90667 3.02 5.2 2.86V0.599999H7.2V2.84C7.89333 2.90667 8.56667 3.07333 9.22 3.34C9.87333 3.60667 10.4267 3.96667 10.88 4.42L10.12 6.34C9.10667 5.40667 7.81333 4.94 6.24 4.94C5.41333 4.94 4.74667 5.13333 4.24 5.52C3.74667 5.89333 3.5 6.38667 3.5 7C3.5 7.45333 3.65333 7.82 3.96 8.1C4.26667 8.38 4.76 8.59333 5.44 8.74L7.56 9.2C8.84 9.48 9.78667 9.92667 10.4 10.54C11.0267 11.14 11.34 11.94 11.34 12.94C11.34 14.06 10.9533 14.98 10.18 15.7C9.42 16.4067 8.42667 16.8533 7.2 17.04V19.3H5.2Z" fill="#4C5271"/>
</svg>
