<svg width="19" height="16" viewBox="0 0 19 16" fill="none" xmlns="http://www.w3.org/2000/svg">
<path d="M6.16 15.56L4.52 14.6L12.76 0.339999L14.38 1.3L6.16 15.56ZM4.44 9.32C3.32 9.32 2.44667 8.93333 1.82 8.16C1.19333 7.38667 0.88 6.33333 0.88 5C0.88 3.66667 1.19333 2.62 1.82 1.86C2.44667 1.08667 3.32 0.699999 4.44 0.699999C5.56 0.699999 6.43333 1.08667 7.06 1.86C7.68667 2.62 8 3.66667 8 5C8 6.33333 7.68667 7.38667 7.06 8.16C6.43333 8.93333 5.56 9.32 4.44 9.32ZM4.44 7.64C4.92 7.64 5.29333 7.42667 5.56 7C5.82667 6.56 5.96 5.89333 5.96 5C5.96 4.10667 5.82667 3.44667 5.56 3.02C5.29333 2.59333 4.92 2.38 4.44 2.38C3.96 2.38 3.58667 2.59333 3.32 3.02C3.05333 3.43333 2.92 4.09333 2.92 5C2.92 5.90667 3.05333 6.57333 3.32 7C3.58667 7.42667 3.96 7.64 4.44 7.64ZM14.48 15.2C13.36 15.2 12.4867 14.8133 11.86 14.04C11.2333 13.2667 10.92 12.2133 10.92 10.88C10.92 9.54667 11.2333 8.5 11.86 7.74C12.4867 6.96667 13.36 6.58 14.48 6.58C15.6 6.58 16.4733 6.96667 17.1 7.74C17.7267 8.5 18.04 9.54667 18.04 10.88C18.04 12.2133 17.7267 13.2667 17.1 14.04C16.4733 14.8133 15.6 15.2 14.48 15.2ZM14.48 13.52C14.96 13.52 15.3333 13.3067 15.6 12.88C15.8667 12.44 16 11.7733 16 10.88C16 9.98667 15.8667 9.32667 15.6 8.9C15.3333 8.47333 14.96 8.26 14.48 8.26C14 8.26 13.6267 8.47333 13.36 8.9C13.0933 9.31333 12.96 9.97333 12.96 10.88C12.96 11.7867 13.0933 12.4533 13.36 12.88C13.6267 13.3067 14 13.52 14.48 13.52Z" fill="#4C5271"/>
</svg>
