<svg width="20" height="20" viewBox="0 0 20 20" fill="none" xmlns="http://www.w3.org/2000/svg">
<path d="M10.3684 0C5.06114 0 0.736328 4.32481 0.736328 9.6321C0.736328 14.9394 5.06114 19.2642 10.3684 19.2642C15.6757 19.2642 20.0005 14.9394 20.0005 9.6321C20.0005 4.32481 15.6757 0 10.3684 0ZM14.2213 10.3545H11.0908V13.4849C11.0908 13.8799 10.7633 14.2074 10.3684 14.2074C9.97351 14.2074 9.64602 13.8799 9.64602 13.4849V10.3545H6.51559C6.12067 10.3545 5.79318 10.027 5.79318 9.6321C5.79318 9.23719 6.12067 8.90969 6.51559 8.90969H9.64602V5.77926C9.64602 5.38435 9.97351 5.05685 10.3684 5.05685C10.7633 5.05685 11.0908 5.38435 11.0908 5.77926V8.90969H14.2213C14.6162 8.90969 14.9437 9.23719 14.9437 9.6321C14.9437 10.027 14.6162 10.3545 14.2213 10.3545Z" fill="#43D39E"/>
</svg>
