<svg width="20" height="22" viewBox="0 0 20 22" fill="none" xmlns="http://www.w3.org/2000/svg">
<path d="M18.5811 3.92872C16.9918 3.77078 15.4025 3.65232 13.8034 3.56348V3.55361L13.5863 2.27036C13.4382 1.36222 13.221 0 10.9112 0H8.32493C6.02493 0 5.80776 1.30299 5.64982 2.26049L5.44253 3.524C4.52451 3.58323 3.6065 3.64245 2.68848 3.73129L0.674767 3.92872C0.260179 3.9682 -0.0359551 4.33343 0.00352945 4.73815C0.043014 5.14287 0.398375 5.439 0.812963 5.39952L2.82668 5.20209C7.99919 4.68879 13.2112 4.88622 18.4429 5.40939H18.5218C18.8969 5.40939 19.2227 5.12313 19.2622 4.73815C19.2918 4.33343 18.9956 3.9682 18.5811 3.92872Z" fill="#FF5C75"/>
<path d="M16.7655 6.80099C16.5286 6.55421 16.2029 6.41602 15.8673 6.41602H3.39018C3.05456 6.41602 2.71894 6.55421 2.49191 6.80099C2.26487 7.04777 2.13654 7.38339 2.15629 7.72888L2.7683 17.8567C2.87688 19.3571 3.01508 21.2326 6.46011 21.2326H12.7973C16.2424 21.2326 16.3807 19.367 16.4891 17.8567L17.1012 7.73875C17.1209 7.38339 16.9926 7.04777 16.7655 6.80099ZM11.2673 16.2872H7.98021C7.57555 16.2872 7.23993 15.9515 7.23993 15.5468C7.23993 15.1421 7.57555 14.8065 7.98021 14.8065H11.2673C11.672 14.8065 12.0076 15.1421 12.0076 15.5468C12.0076 15.9515 11.672 16.2872 11.2673 16.2872ZM12.0965 12.3387H7.16096C6.75624 12.3387 6.42062 12.0031 6.42062 11.5984C6.42062 11.1937 6.75624 10.858 7.16096 10.858H12.0965C12.5012 10.858 12.8368 11.1937 12.8368 11.5984C12.8368 12.0031 12.5012 12.3387 12.0965 12.3387Z" fill="#FF5C75"/>
</svg>
