<?xml version="1.0" encoding="UTF-8"?>
<!DOCTYPE svg PUBLIC "-//W3C//DTD SVG 1.1//EN" "http://www.w3.org/Graphics/SVG/1.1/DTD/svg11.dtd">
<svg xmlns="http://www.w3.org/2000/svg" version="1.1" width="512px" height="512px" style="shape-rendering:geometricPrecision; text-rendering:geometricPrecision; image-rendering:optimizeQuality; fill-rule:evenodd; clip-rule:evenodd" xmlns:xlink="http://www.w3.org/1999/xlink">
<g><path style="opacity:1" fill="#32ab45" d="M 468.5,183.5 C 362.833,183.5 257.167,183.5 151.5,183.5C 151.5,141.167 151.5,98.8333 151.5,56.5C 203.883,30.0689 258.549,24.2356 315.5,39C 390.31,61.9775 441.31,110.144 468.5,183.5 Z"/></g>
<g><path style="opacity:1" fill="#e82c2b" d="M 151.5,56.5 C 151.5,98.8333 151.5,141.167 151.5,183.5C 151.5,231.5 151.5,279.5 151.5,327.5C 151.832,369.67 151.499,411.67 150.5,453.5C 104.126,428.956 70.2927,392.622 49,344.5C 29.4856,295.951 26.1523,246.285 39,195.5C 57.0736,133.305 94.5736,86.9718 151.5,56.5 Z"/></g>
<g><path style="opacity:0.999" fill="#fbfbfb" d="M 151.5,183.5 C 257.167,183.5 362.833,183.5 468.5,183.5C 483.167,231.5 483.167,279.5 468.5,327.5C 362.833,327.5 257.167,327.5 151.5,327.5C 151.5,279.5 151.5,231.5 151.5,183.5 Z"/></g>
<g><path style="opacity:1" fill="#1d1d1d" d="M 151.5,327.5 C 257.167,327.5 362.833,327.5 468.5,327.5C 441.31,400.856 390.31,449.023 315.5,472C 263.903,485.146 213.57,481.48 164.5,461C 159.613,458.726 154.946,456.226 150.5,453.5C 151.499,411.67 151.832,369.67 151.5,327.5 Z"/></g>
</svg>
