<svg width="22" height="22" viewBox="0 0 22 22" fill="none" xmlns="http://www.w3.org/2000/svg">
<g clip-path="url(#clip0_244_43409)">
<path d="M10.7437 0.256641C16.6774 0.256641 21.4875 5.06678 21.4875 11.0004C21.4875 16.934 16.6774 21.7441 10.7437 21.7441C4.81014 21.7441 0 16.934 0 11.0004C0 5.06678 4.81014 0.256641 10.7437 0.256641Z" fill="#F0F0F0"/>
<path d="M2.22143 17.542C1.3775 16.444 0.741139 15.1785 0.370605 13.8036H5.95979L2.22143 17.542Z" fill="#0052B4"/>
<path d="M21.1179 13.8037C20.7474 15.1785 20.111 16.444 19.2671 17.542L15.5288 13.8037H21.1179Z" fill="#0052B4"/>
<path d="M0.370605 8.19922C0.741181 6.82444 1.37754 5.5589 2.22143 4.46094L5.95966 8.19922H0.370605Z" fill="#0052B4"/>
<path d="M17.2852 19.5241C16.1872 20.3681 14.9217 21.0044 13.5469 21.375V15.7859L17.2852 19.5241Z" fill="#0052B4"/>
<path d="M4.20312 2.47856C5.30113 1.63463 6.56667 0.998273 7.94145 0.627697V6.2168L4.20312 2.47856Z" fill="#0052B4"/>
<path d="M7.9414 21.375C6.56662 21.0044 5.30109 20.3681 4.20312 19.5242L7.9414 15.7859V21.375Z" fill="#0052B4"/>
<path d="M13.5474 0.627697C14.9221 0.998273 16.1877 1.63463 17.2856 2.47852L13.5474 6.2168V0.627697Z" fill="#0052B4"/>
<path d="M15.5288 8.19922L19.2671 4.4609C20.111 5.55886 20.7474 6.82444 21.1179 8.19922H15.5288Z" fill="#0052B4"/>
<path d="M21.3966 12.4017H12.1452H12.1451V21.6532C11.6864 21.7129 11.2187 21.7441 10.7437 21.7441C10.2687 21.7441 9.80111 21.7129 9.3424 21.6532V12.4018V12.4018H0.0909442C0.031224 11.943 0 11.4753 0 11.0004C0 10.5254 0.031224 10.0578 0.0909442 9.59905H9.34232H9.34236V0.347586C9.80111 0.287865 10.2687 0.256641 10.7437 0.256641C11.2187 0.256641 11.6864 0.287823 12.1451 0.347586V9.59896V9.599H21.3966C21.4563 10.0578 21.4875 10.5254 21.4875 11.0004C21.4875 11.4753 21.4563 11.943 21.3966 12.4017Z" fill="#D80027"/>
<path d="M13.5464 8.19722L18.3406 3.40299C18.5611 3.62341 18.7715 3.85385 18.9721 4.09273L14.8676 8.19727H13.5464V8.19722Z" fill="#D80027"/>
<path d="M7.94076 8.19727H7.94067L3.14648 3.40308C3.3669 3.18258 3.59734 2.97224 3.83622 2.77155L7.94076 6.87616V8.19727Z" fill="#D80027"/>
<path d="M7.94139 13.8033V13.8034L3.14716 18.5977C2.92666 18.3772 2.71631 18.1468 2.51562 17.9079L6.6202 13.8033H7.94139V13.8033Z" fill="#D80027"/>
<path d="M13.5464 13.8027L18.3407 18.597C18.1202 18.8175 17.8898 19.0279 17.6509 19.2285L13.5464 15.1239V13.8027Z" fill="#D80027"/>
<path d="M21.0398 11.0004C21.0398 5.31402 16.4301 0.704298 10.7437 0.704298C5.05737 0.704298 0.447656 5.31402 0.447656 11.0004C0.447656 16.6868 5.05737 21.2965 10.7437 21.2965C16.4301 21.2965 21.0398 16.6868 21.0398 11.0004Z" stroke="white" stroke-width="0.895312"/>
</g>
<defs>
<clipPath id="clip0_244_43409">
<rect width="21.4875" height="21.4875" fill="white" transform="matrix(1 0 0 -1 0 21.7441)"/>
</clipPath>
</defs>
</svg>
